<mxfile host="app.diagrams.net" modified="2023-04-10T02:35:07.768Z" agent="Mozilla/5.0 (Windows NT 10.0; Win64; x64) AppleWebKit/537.36 (KHTML, like Gecko) Chrome/111.0.0.0 Safari/537.36" etag="AmNSidvflIm3QToshJ5k" version="21.1.5" type="github">
  <diagram name="Page-1" id="QzmIClkiWC_pqr0MoqE9">
    <mxGraphModel dx="880" dy="452" grid="0" gridSize="10" guides="1" tooltips="1" connect="1" arrows="1" fold="1" page="1" pageScale="1" pageWidth="1100" pageHeight="1700" math="0" shadow="0">
      <root>
        <mxCell id="0" />
        <mxCell id="1" parent="0" />
        <mxCell id="_Sh0xL7N-RvuIjmmcohQ-1" value="Memilih Barbershop" style="ellipse;whiteSpace=wrap;html=1;" parent="1" vertex="1">
          <mxGeometry x="190" y="40" width="180" height="90" as="geometry" />
        </mxCell>
        <mxCell id="_Sh0xL7N-RvuIjmmcohQ-2" value="" style="endArrow=classic;html=1;rounded=0;" parent="1" edge="1">
          <mxGeometry width="50" height="50" relative="1" as="geometry">
            <mxPoint x="370" y="84.5" as="sourcePoint" />
            <mxPoint x="530" y="85" as="targetPoint" />
          </mxGeometry>
        </mxCell>
        <mxCell id="_Sh0xL7N-RvuIjmmcohQ-3" value="Choose Barbershop" style="rounded=0;whiteSpace=wrap;html=1;" parent="1" vertex="1">
          <mxGeometry x="530" y="52.5" width="140" height="65" as="geometry" />
        </mxCell>
        <mxCell id="_Sh0xL7N-RvuIjmmcohQ-4" value="" style="endArrow=classic;html=1;rounded=0;" parent="1" edge="1">
          <mxGeometry width="50" height="50" relative="1" as="geometry">
            <mxPoint x="279.5" y="130" as="sourcePoint" />
            <mxPoint x="279.5" y="200" as="targetPoint" />
          </mxGeometry>
        </mxCell>
        <mxCell id="_Sh0xL7N-RvuIjmmcohQ-6" value="&lt;ol&gt;&lt;li&gt;Mengaktifkan akses lokasi&lt;/li&gt;&lt;li&gt;Menampilkan list barbershop terdekat&lt;/li&gt;&lt;li&gt;melihat list barbershop terdekat&lt;/li&gt;&lt;li&gt;melihat rating pada setiap barbershop&lt;/li&gt;&lt;li&gt;memilih barbershop yang diinginkan&amp;nbsp;&lt;/li&gt;&lt;/ol&gt;" style="rounded=0;whiteSpace=wrap;html=1;align=left;" parent="1" vertex="1">
          <mxGeometry x="165" y="200" width="260" height="100" as="geometry" />
        </mxCell>
        <mxCell id="_Sh0xL7N-RvuIjmmcohQ-7" value="" style="endArrow=classic;html=1;rounded=0;entryX=0;entryY=0.012;entryDx=0;entryDy=0;entryPerimeter=0;" parent="1" edge="1" target="_Sh0xL7N-RvuIjmmcohQ-20">
          <mxGeometry width="50" height="50" relative="1" as="geometry">
            <mxPoint x="425" y="240" as="sourcePoint" />
            <mxPoint x="535" y="240.5" as="targetPoint" />
          </mxGeometry>
        </mxCell>
        <mxCell id="_Sh0xL7N-RvuIjmmcohQ-14" value="Use case" style="text;html=1;align=center;verticalAlign=middle;resizable=0;points=[];autosize=1;strokeColor=none;fillColor=none;" parent="1" vertex="1">
          <mxGeometry x="120" y="70" width="70" height="30" as="geometry" />
        </mxCell>
        <mxCell id="_Sh0xL7N-RvuIjmmcohQ-15" value="Dialog Type" style="text;html=1;align=center;verticalAlign=middle;resizable=0;points=[];autosize=1;strokeColor=none;fillColor=none;" parent="1" vertex="1">
          <mxGeometry x="660" y="65" width="90" height="30" as="geometry" />
        </mxCell>
        <mxCell id="_Sh0xL7N-RvuIjmmcohQ-16" value="Use case steps" style="text;html=1;align=center;verticalAlign=middle;resizable=0;points=[];autosize=1;strokeColor=none;fillColor=none;" parent="1" vertex="1">
          <mxGeometry x="55" y="230" width="110" height="30" as="geometry" />
        </mxCell>
        <mxCell id="_Sh0xL7N-RvuIjmmcohQ-17" value="&amp;lt;&amp;lt;Interface&amp;gt;&amp;gt;&lt;br&gt;IChooseBarbershop" style="swimlane;fontStyle=1;align=center;verticalAlign=top;childLayout=stackLayout;horizontal=1;startSize=40;horizontalStack=0;resizeParent=1;resizeParentMax=0;resizeLast=0;collapsible=1;marginBottom=0;whiteSpace=wrap;html=1;" parent="1" vertex="1">
          <mxGeometry x="540" y="190" width="160" height="134" as="geometry" />
        </mxCell>
        <mxCell id="_Sh0xL7N-RvuIjmmcohQ-19" value="" style="line;strokeWidth=1;fillColor=none;align=left;verticalAlign=middle;spacingTop=-1;spacingLeft=3;spacingRight=3;rotatable=0;labelPosition=right;points=[];portConstraint=eastwest;strokeColor=inherit;" parent="_Sh0xL7N-RvuIjmmcohQ-17" vertex="1">
          <mxGeometry y="40" width="160" height="8" as="geometry" />
        </mxCell>
        <mxCell id="_Sh0xL7N-RvuIjmmcohQ-20" value="+ getLocation()&lt;br&gt;+ getListBarbershop()&lt;br&gt;+ getRating()&lt;br&gt;+ chooseBarbershop()" style="text;strokeColor=none;fillColor=none;align=left;verticalAlign=top;spacingLeft=4;spacingRight=4;overflow=hidden;rotatable=0;points=[[0,0.5],[1,0.5]];portConstraint=eastwest;whiteSpace=wrap;html=1;" parent="_Sh0xL7N-RvuIjmmcohQ-17" vertex="1">
          <mxGeometry y="48" width="160" height="86" as="geometry" />
        </mxCell>
        <mxCell id="_Sh0xL7N-RvuIjmmcohQ-21" value="System Interface" style="text;html=1;align=center;verticalAlign=middle;resizable=0;points=[];autosize=1;strokeColor=none;fillColor=none;" parent="1" vertex="1">
          <mxGeometry x="700" y="230" width="110" height="30" as="geometry" />
        </mxCell>
        <mxCell id="_Sh0xL7N-RvuIjmmcohQ-34" value="Memilih Service" style="ellipse;whiteSpace=wrap;html=1;" parent="1" vertex="1">
          <mxGeometry x="200" y="390" width="180" height="90" as="geometry" />
        </mxCell>
        <mxCell id="_Sh0xL7N-RvuIjmmcohQ-35" value="" style="endArrow=classic;html=1;rounded=0;" parent="1" edge="1">
          <mxGeometry width="50" height="50" relative="1" as="geometry">
            <mxPoint x="380" y="434.5" as="sourcePoint" />
            <mxPoint x="540" y="435" as="targetPoint" />
          </mxGeometry>
        </mxCell>
        <mxCell id="_Sh0xL7N-RvuIjmmcohQ-36" value="Choose Service" style="rounded=0;whiteSpace=wrap;html=1;" parent="1" vertex="1">
          <mxGeometry x="540" y="402.5" width="140" height="65" as="geometry" />
        </mxCell>
        <mxCell id="_Sh0xL7N-RvuIjmmcohQ-37" value="" style="endArrow=classic;html=1;rounded=0;" parent="1" edge="1">
          <mxGeometry width="50" height="50" relative="1" as="geometry">
            <mxPoint x="289.5" y="480" as="sourcePoint" />
            <mxPoint x="289.5" y="550" as="targetPoint" />
          </mxGeometry>
        </mxCell>
        <mxCell id="_Sh0xL7N-RvuIjmmcohQ-38" value="&lt;ol&gt;&lt;li&gt;Melihat list service barbershop&lt;/li&gt;&lt;li&gt;Melihat harga yang tersedia pada setiap jenis service&lt;/li&gt;&lt;li&gt;melihat beberapa review pelanggan&lt;/li&gt;&lt;li&gt;memilih service yang diinginkan&amp;nbsp;&lt;/li&gt;&lt;/ol&gt;" style="rounded=0;whiteSpace=wrap;html=1;align=left;" parent="1" vertex="1">
          <mxGeometry x="175" y="550" width="260" height="100" as="geometry" />
        </mxCell>
        <mxCell id="_Sh0xL7N-RvuIjmmcohQ-39" value="" style="endArrow=classic;html=1;rounded=0;" parent="1" edge="1">
          <mxGeometry width="50" height="50" relative="1" as="geometry">
            <mxPoint x="435" y="590" as="sourcePoint" />
            <mxPoint x="545" y="590.5" as="targetPoint" />
          </mxGeometry>
        </mxCell>
        <mxCell id="_Sh0xL7N-RvuIjmmcohQ-40" value="Use case" style="text;html=1;align=center;verticalAlign=middle;resizable=0;points=[];autosize=1;strokeColor=none;fillColor=none;" parent="1" vertex="1">
          <mxGeometry x="130" y="420" width="70" height="30" as="geometry" />
        </mxCell>
        <mxCell id="_Sh0xL7N-RvuIjmmcohQ-41" value="Dialog Type" style="text;html=1;align=center;verticalAlign=middle;resizable=0;points=[];autosize=1;strokeColor=none;fillColor=none;" parent="1" vertex="1">
          <mxGeometry x="670" y="415" width="90" height="30" as="geometry" />
        </mxCell>
        <mxCell id="_Sh0xL7N-RvuIjmmcohQ-42" value="Use case steps" style="text;html=1;align=center;verticalAlign=middle;resizable=0;points=[];autosize=1;strokeColor=none;fillColor=none;" parent="1" vertex="1">
          <mxGeometry x="70" y="580" width="110" height="30" as="geometry" />
        </mxCell>
        <mxCell id="_Sh0xL7N-RvuIjmmcohQ-43" value="&amp;lt;&amp;lt;Interface&amp;gt;&amp;gt;&lt;br&gt;IChooseService" style="swimlane;fontStyle=1;align=center;verticalAlign=top;childLayout=stackLayout;horizontal=1;startSize=40;horizontalStack=0;resizeParent=1;resizeParentMax=0;resizeLast=0;collapsible=1;marginBottom=0;whiteSpace=wrap;html=1;" parent="1" vertex="1">
          <mxGeometry x="550" y="540" width="160" height="134" as="geometry" />
        </mxCell>
        <mxCell id="_Sh0xL7N-RvuIjmmcohQ-44" value="" style="line;strokeWidth=1;fillColor=none;align=left;verticalAlign=middle;spacingTop=-1;spacingLeft=3;spacingRight=3;rotatable=0;labelPosition=right;points=[];portConstraint=eastwest;strokeColor=inherit;" parent="_Sh0xL7N-RvuIjmmcohQ-43" vertex="1">
          <mxGeometry y="40" width="160" height="8" as="geometry" />
        </mxCell>
        <mxCell id="_Sh0xL7N-RvuIjmmcohQ-45" value="+ getListService()&lt;br&gt;+ getPrice()&lt;br&gt;+ getReview()&lt;br&gt;+ chooseService()" style="text;strokeColor=none;fillColor=none;align=left;verticalAlign=top;spacingLeft=4;spacingRight=4;overflow=hidden;rotatable=0;points=[[0,0.5],[1,0.5]];portConstraint=eastwest;whiteSpace=wrap;html=1;" parent="_Sh0xL7N-RvuIjmmcohQ-43" vertex="1">
          <mxGeometry y="48" width="160" height="86" as="geometry" />
        </mxCell>
        <mxCell id="_Sh0xL7N-RvuIjmmcohQ-46" value="System Interface" style="text;html=1;align=center;verticalAlign=middle;resizable=0;points=[];autosize=1;strokeColor=none;fillColor=none;" parent="1" vertex="1">
          <mxGeometry x="710" y="580" width="110" height="30" as="geometry" />
        </mxCell>
        <mxCell id="-62G5XO5tZmvICnYgQDq-1" value="Melakukan Pemesanan" style="ellipse;whiteSpace=wrap;html=1;" vertex="1" parent="1">
          <mxGeometry x="210" y="730" width="180" height="90" as="geometry" />
        </mxCell>
        <mxCell id="-62G5XO5tZmvICnYgQDq-2" value="" style="endArrow=classic;html=1;rounded=0;" edge="1" parent="1">
          <mxGeometry width="50" height="50" relative="1" as="geometry">
            <mxPoint x="390" y="774.5" as="sourcePoint" />
            <mxPoint x="550" y="775" as="targetPoint" />
          </mxGeometry>
        </mxCell>
        <mxCell id="-62G5XO5tZmvICnYgQDq-3" value="Booking" style="rounded=0;whiteSpace=wrap;html=1;" vertex="1" parent="1">
          <mxGeometry x="550" y="742.5" width="140" height="65" as="geometry" />
        </mxCell>
        <mxCell id="-62G5XO5tZmvICnYgQDq-4" value="" style="endArrow=classic;html=1;rounded=0;" edge="1" parent="1">
          <mxGeometry width="50" height="50" relative="1" as="geometry">
            <mxPoint x="299.5" y="820" as="sourcePoint" />
            <mxPoint x="299.5" y="890" as="targetPoint" />
          </mxGeometry>
        </mxCell>
        <mxCell id="-62G5XO5tZmvICnYgQDq-5" value="&lt;ol&gt;&lt;li&gt;Melihat jadwal yang tersedia&lt;/li&gt;&lt;li&gt;Memilih jam dan tanggal yang kosong&lt;/li&gt;&lt;li&gt;Melakukan cheklist service yang dipilih&lt;/li&gt;&lt;li&gt;Melihat total harga pemesanan&lt;/li&gt;&lt;li&gt;Melakukan konfirmasi pembayaran&lt;/li&gt;&lt;li&gt;Melakukan pembayaran dan menunggu konfirmasi pemesanan&lt;/li&gt;&lt;/ol&gt;" style="rounded=0;whiteSpace=wrap;html=1;align=left;" vertex="1" parent="1">
          <mxGeometry x="180" y="890" width="265" height="120" as="geometry" />
        </mxCell>
        <mxCell id="-62G5XO5tZmvICnYgQDq-6" value="" style="endArrow=classic;html=1;rounded=0;" edge="1" parent="1">
          <mxGeometry width="50" height="50" relative="1" as="geometry">
            <mxPoint x="445" y="930" as="sourcePoint" />
            <mxPoint x="555" y="930.5" as="targetPoint" />
          </mxGeometry>
        </mxCell>
        <mxCell id="-62G5XO5tZmvICnYgQDq-7" value="Use case" style="text;html=1;align=center;verticalAlign=middle;resizable=0;points=[];autosize=1;strokeColor=none;fillColor=none;" vertex="1" parent="1">
          <mxGeometry x="140" y="760" width="70" height="30" as="geometry" />
        </mxCell>
        <mxCell id="-62G5XO5tZmvICnYgQDq-8" value="Dialog Type" style="text;html=1;align=center;verticalAlign=middle;resizable=0;points=[];autosize=1;strokeColor=none;fillColor=none;" vertex="1" parent="1">
          <mxGeometry x="680" y="755" width="90" height="30" as="geometry" />
        </mxCell>
        <mxCell id="-62G5XO5tZmvICnYgQDq-9" value="&amp;lt;&amp;lt;Interface&amp;gt;&amp;gt;&lt;br&gt;IBooking" style="swimlane;fontStyle=1;align=center;verticalAlign=top;childLayout=stackLayout;horizontal=1;startSize=40;horizontalStack=0;resizeParent=1;resizeParentMax=0;resizeLast=0;collapsible=1;marginBottom=0;whiteSpace=wrap;html=1;" vertex="1" parent="1">
          <mxGeometry x="560" y="880" width="160" height="134" as="geometry" />
        </mxCell>
        <mxCell id="-62G5XO5tZmvICnYgQDq-10" value="" style="line;strokeWidth=1;fillColor=none;align=left;verticalAlign=middle;spacingTop=-1;spacingLeft=3;spacingRight=3;rotatable=0;labelPosition=right;points=[];portConstraint=eastwest;strokeColor=inherit;" vertex="1" parent="-62G5XO5tZmvICnYgQDq-9">
          <mxGeometry y="40" width="160" height="8" as="geometry" />
        </mxCell>
        <mxCell id="-62G5XO5tZmvICnYgQDq-11" value="+ getSchedule()&lt;br&gt;+ checklistService()&lt;br&gt;+ getTotalPrice()&lt;br&gt;+ confirmPayment()&lt;br&gt;+ doPayment()" style="text;strokeColor=none;fillColor=none;align=left;verticalAlign=top;spacingLeft=4;spacingRight=4;overflow=hidden;rotatable=0;points=[[0,0.5],[1,0.5]];portConstraint=eastwest;whiteSpace=wrap;html=1;" vertex="1" parent="-62G5XO5tZmvICnYgQDq-9">
          <mxGeometry y="48" width="160" height="86" as="geometry" />
        </mxCell>
        <mxCell id="-62G5XO5tZmvICnYgQDq-12" value="System Interface" style="text;html=1;align=center;verticalAlign=middle;resizable=0;points=[];autosize=1;strokeColor=none;fillColor=none;" vertex="1" parent="1">
          <mxGeometry x="720" y="920" width="110" height="30" as="geometry" />
        </mxCell>
        <mxCell id="-62G5XO5tZmvICnYgQDq-13" value="Use case steps" style="text;html=1;align=center;verticalAlign=middle;resizable=0;points=[];autosize=1;strokeColor=none;fillColor=none;" vertex="1" parent="1">
          <mxGeometry x="80" y="920" width="110" height="30" as="geometry" />
        </mxCell>
        <mxCell id="-62G5XO5tZmvICnYgQDq-17" value="" style="endArrow=block;dashed=1;endFill=0;endSize=12;html=1;rounded=0;entryX=0.381;entryY=-0.03;entryDx=0;entryDy=0;entryPerimeter=0;" edge="1" parent="1">
          <mxGeometry width="160" relative="1" as="geometry">
            <mxPoint x="620" y="470" as="sourcePoint" />
            <mxPoint x="620.5" y="540" as="targetPoint" />
            <Array as="points" />
          </mxGeometry>
        </mxCell>
        <mxCell id="-62G5XO5tZmvICnYgQDq-18" value="" style="endArrow=block;dashed=1;endFill=0;endSize=12;html=1;rounded=0;entryX=0.381;entryY=-0.03;entryDx=0;entryDy=0;entryPerimeter=0;" edge="1" parent="1">
          <mxGeometry width="160" relative="1" as="geometry">
            <mxPoint x="629.5" y="810" as="sourcePoint" />
            <mxPoint x="630" y="880" as="targetPoint" />
            <Array as="points" />
          </mxGeometry>
        </mxCell>
        <mxCell id="-62G5XO5tZmvICnYgQDq-19" value="" style="endArrow=block;dashed=1;endFill=0;endSize=12;html=1;rounded=0;entryX=0.381;entryY=-0.03;entryDx=0;entryDy=0;entryPerimeter=0;" edge="1" parent="1">
          <mxGeometry width="160" relative="1" as="geometry">
            <mxPoint x="599.5" y="120" as="sourcePoint" />
            <mxPoint x="600" y="190" as="targetPoint" />
            <Array as="points" />
          </mxGeometry>
        </mxCell>
        <mxCell id="-62G5XO5tZmvICnYgQDq-20" value="Melakukan Pembayaran" style="ellipse;whiteSpace=wrap;html=1;" vertex="1" parent="1">
          <mxGeometry x="220" y="1080" width="180" height="90" as="geometry" />
        </mxCell>
        <mxCell id="-62G5XO5tZmvICnYgQDq-21" value="" style="endArrow=classic;html=1;rounded=0;" edge="1" parent="1">
          <mxGeometry width="50" height="50" relative="1" as="geometry">
            <mxPoint x="400" y="1124.5" as="sourcePoint" />
            <mxPoint x="560" y="1125" as="targetPoint" />
          </mxGeometry>
        </mxCell>
        <mxCell id="-62G5XO5tZmvICnYgQDq-22" value="Payment" style="rounded=0;whiteSpace=wrap;html=1;" vertex="1" parent="1">
          <mxGeometry x="560" y="1092.5" width="140" height="65" as="geometry" />
        </mxCell>
        <mxCell id="-62G5XO5tZmvICnYgQDq-23" value="" style="endArrow=classic;html=1;rounded=0;" edge="1" parent="1">
          <mxGeometry width="50" height="50" relative="1" as="geometry">
            <mxPoint x="309.5" y="1170" as="sourcePoint" />
            <mxPoint x="309.5" y="1240" as="targetPoint" />
          </mxGeometry>
        </mxCell>
        <mxCell id="-62G5XO5tZmvICnYgQDq-24" value="&lt;ol&gt;&lt;li&gt;Menampilkan metode pembayaran&lt;/li&gt;&lt;li&gt;Memilih salah satu metode pembayaran&lt;/li&gt;&lt;li&gt;Memasukkan nominal harga yang harus dibayar&lt;/li&gt;&lt;li&gt;Melakukan pembayaran&lt;/li&gt;&lt;li&gt;Menampilkan saldo&lt;/li&gt;&lt;/ol&gt;" style="rounded=0;whiteSpace=wrap;html=1;align=left;" vertex="1" parent="1">
          <mxGeometry x="190" y="1240" width="265" height="120" as="geometry" />
        </mxCell>
        <mxCell id="-62G5XO5tZmvICnYgQDq-25" value="" style="endArrow=classic;html=1;rounded=0;" edge="1" parent="1">
          <mxGeometry width="50" height="50" relative="1" as="geometry">
            <mxPoint x="455" y="1280" as="sourcePoint" />
            <mxPoint x="565" y="1280.5" as="targetPoint" />
          </mxGeometry>
        </mxCell>
        <mxCell id="-62G5XO5tZmvICnYgQDq-26" value="Use case" style="text;html=1;align=center;verticalAlign=middle;resizable=0;points=[];autosize=1;strokeColor=none;fillColor=none;" vertex="1" parent="1">
          <mxGeometry x="150" y="1110" width="70" height="30" as="geometry" />
        </mxCell>
        <mxCell id="-62G5XO5tZmvICnYgQDq-27" value="Dialog Type" style="text;html=1;align=center;verticalAlign=middle;resizable=0;points=[];autosize=1;strokeColor=none;fillColor=none;" vertex="1" parent="1">
          <mxGeometry x="690" y="1105" width="90" height="30" as="geometry" />
        </mxCell>
        <mxCell id="-62G5XO5tZmvICnYgQDq-28" value="&amp;lt;&amp;lt;Interface&amp;gt;&amp;gt;&lt;br&gt;IPayment" style="swimlane;fontStyle=1;align=center;verticalAlign=top;childLayout=stackLayout;horizontal=1;startSize=40;horizontalStack=0;resizeParent=1;resizeParentMax=0;resizeLast=0;collapsible=1;marginBottom=0;whiteSpace=wrap;html=1;" vertex="1" parent="1">
          <mxGeometry x="570" y="1230" width="160" height="134" as="geometry" />
        </mxCell>
        <mxCell id="-62G5XO5tZmvICnYgQDq-29" value="" style="line;strokeWidth=1;fillColor=none;align=left;verticalAlign=middle;spacingTop=-1;spacingLeft=3;spacingRight=3;rotatable=0;labelPosition=right;points=[];portConstraint=eastwest;strokeColor=inherit;" vertex="1" parent="-62G5XO5tZmvICnYgQDq-28">
          <mxGeometry y="40" width="160" height="8" as="geometry" />
        </mxCell>
        <mxCell id="-62G5XO5tZmvICnYgQDq-30" value="+ getPaymentMethod()&lt;br&gt;+ choosePaymentMethod()&lt;br&gt;+ setPrice()&lt;br&gt;+ doPayment()&lt;br&gt;+ getBalance()" style="text;strokeColor=none;fillColor=none;align=left;verticalAlign=top;spacingLeft=4;spacingRight=4;overflow=hidden;rotatable=0;points=[[0,0.5],[1,0.5]];portConstraint=eastwest;whiteSpace=wrap;html=1;" vertex="1" parent="-62G5XO5tZmvICnYgQDq-28">
          <mxGeometry y="48" width="160" height="86" as="geometry" />
        </mxCell>
        <mxCell id="-62G5XO5tZmvICnYgQDq-31" value="System Interface" style="text;html=1;align=center;verticalAlign=middle;resizable=0;points=[];autosize=1;strokeColor=none;fillColor=none;" vertex="1" parent="1">
          <mxGeometry x="726" y="1285" width="110" height="30" as="geometry" />
        </mxCell>
        <mxCell id="-62G5XO5tZmvICnYgQDq-32" value="" style="endArrow=block;dashed=1;endFill=0;endSize=12;html=1;rounded=0;entryX=0.381;entryY=-0.03;entryDx=0;entryDy=0;entryPerimeter=0;" edge="1" parent="1">
          <mxGeometry width="160" relative="1" as="geometry">
            <mxPoint x="639.5" y="1160" as="sourcePoint" />
            <mxPoint x="640" y="1230" as="targetPoint" />
            <Array as="points" />
          </mxGeometry>
        </mxCell>
        <mxCell id="-62G5XO5tZmvICnYgQDq-33" value="Menerima/menolak Pemesanan" style="ellipse;whiteSpace=wrap;html=1;" vertex="1" parent="1">
          <mxGeometry x="210" y="1400" width="180" height="90" as="geometry" />
        </mxCell>
        <mxCell id="-62G5XO5tZmvICnYgQDq-34" value="" style="endArrow=classic;html=1;rounded=0;" edge="1" parent="1">
          <mxGeometry width="50" height="50" relative="1" as="geometry">
            <mxPoint x="390" y="1444.5" as="sourcePoint" />
            <mxPoint x="550" y="1445" as="targetPoint" />
          </mxGeometry>
        </mxCell>
        <mxCell id="-62G5XO5tZmvICnYgQDq-35" value="Proceed Booking" style="rounded=0;whiteSpace=wrap;html=1;" vertex="1" parent="1">
          <mxGeometry x="550" y="1412.5" width="140" height="65" as="geometry" />
        </mxCell>
        <mxCell id="-62G5XO5tZmvICnYgQDq-36" value="" style="endArrow=classic;html=1;rounded=0;" edge="1" parent="1">
          <mxGeometry width="50" height="50" relative="1" as="geometry">
            <mxPoint x="299.5" y="1490" as="sourcePoint" />
            <mxPoint x="299.5" y="1560" as="targetPoint" />
          </mxGeometry>
        </mxCell>
        <mxCell id="-62G5XO5tZmvICnYgQDq-37" value="&lt;ol&gt;&lt;li&gt;Mendapat notifikasi pemesanan&lt;/li&gt;&lt;li&gt;Melihat jadwal pemesanan&lt;/li&gt;&lt;li&gt;Menyesuaikan jadwal pemesanan&lt;/li&gt;&lt;/ol&gt;" style="rounded=0;whiteSpace=wrap;html=1;align=left;" vertex="1" parent="1">
          <mxGeometry x="180" y="1560" width="240" height="90" as="geometry" />
        </mxCell>
        <mxCell id="-62G5XO5tZmvICnYgQDq-39" value="Use case" style="text;html=1;align=center;verticalAlign=middle;resizable=0;points=[];autosize=1;strokeColor=none;fillColor=none;" vertex="1" parent="1">
          <mxGeometry x="140" y="1430" width="70" height="30" as="geometry" />
        </mxCell>
        <mxCell id="-62G5XO5tZmvICnYgQDq-40" value="Dialog Type" style="text;html=1;align=center;verticalAlign=middle;resizable=0;points=[];autosize=1;strokeColor=none;fillColor=none;" vertex="1" parent="1">
          <mxGeometry x="680" y="1425" width="90" height="30" as="geometry" />
        </mxCell>
        <mxCell id="-62G5XO5tZmvICnYgQDq-41" value="&amp;lt;&amp;lt;Interface&amp;gt;&amp;gt;&lt;br&gt;IProceedBooking" style="swimlane;fontStyle=1;align=center;verticalAlign=top;childLayout=stackLayout;horizontal=1;startSize=40;horizontalStack=0;resizeParent=1;resizeParentMax=0;resizeLast=0;collapsible=1;marginBottom=0;whiteSpace=wrap;html=1;" vertex="1" parent="1">
          <mxGeometry x="560" y="1550" width="160" height="134" as="geometry" />
        </mxCell>
        <mxCell id="-62G5XO5tZmvICnYgQDq-42" value="" style="line;strokeWidth=1;fillColor=none;align=left;verticalAlign=middle;spacingTop=-1;spacingLeft=3;spacingRight=3;rotatable=0;labelPosition=right;points=[];portConstraint=eastwest;strokeColor=inherit;" vertex="1" parent="-62G5XO5tZmvICnYgQDq-41">
          <mxGeometry y="40" width="160" height="8" as="geometry" />
        </mxCell>
        <mxCell id="-62G5XO5tZmvICnYgQDq-43" value="+ getNotification()&lt;br&gt;+ getSchedule()&lt;br&gt;+ adjustSchedule()&lt;br&gt;" style="text;strokeColor=none;fillColor=none;align=left;verticalAlign=top;spacingLeft=4;spacingRight=4;overflow=hidden;rotatable=0;points=[[0,0.5],[1,0.5]];portConstraint=eastwest;whiteSpace=wrap;html=1;" vertex="1" parent="-62G5XO5tZmvICnYgQDq-41">
          <mxGeometry y="48" width="160" height="86" as="geometry" />
        </mxCell>
        <mxCell id="-62G5XO5tZmvICnYgQDq-44" value="System Interface" style="text;html=1;align=center;verticalAlign=middle;resizable=0;points=[];autosize=1;strokeColor=none;fillColor=none;" vertex="1" parent="1">
          <mxGeometry x="720" y="1590" width="110" height="30" as="geometry" />
        </mxCell>
        <mxCell id="-62G5XO5tZmvICnYgQDq-45" value="" style="endArrow=block;dashed=1;endFill=0;endSize=12;html=1;rounded=0;entryX=0.381;entryY=-0.03;entryDx=0;entryDy=0;entryPerimeter=0;" edge="1" parent="1">
          <mxGeometry width="160" relative="1" as="geometry">
            <mxPoint x="629.5" y="1480" as="sourcePoint" />
            <mxPoint x="630" y="1550" as="targetPoint" />
            <Array as="points" />
          </mxGeometry>
        </mxCell>
        <mxCell id="-62G5XO5tZmvICnYgQDq-46" value="Use case steps" style="text;html=1;align=center;verticalAlign=middle;resizable=0;points=[];autosize=1;strokeColor=none;fillColor=none;" vertex="1" parent="1">
          <mxGeometry x="94" y="1278" width="100" height="26" as="geometry" />
        </mxCell>
        <mxCell id="-62G5XO5tZmvICnYgQDq-47" value="Use case steps" style="text;html=1;align=center;verticalAlign=middle;resizable=0;points=[];autosize=1;strokeColor=none;fillColor=none;" vertex="1" parent="1">
          <mxGeometry x="85" y="1590" width="100" height="26" as="geometry" />
        </mxCell>
        <mxCell id="-62G5XO5tZmvICnYgQDq-48" value="" style="endArrow=classic;html=1;rounded=0;entryX=-0.006;entryY=0.14;entryDx=0;entryDy=0;entryPerimeter=0;" edge="1" parent="1" target="-62G5XO5tZmvICnYgQDq-43">
          <mxGeometry width="50" height="50" relative="1" as="geometry">
            <mxPoint x="420" y="1608" as="sourcePoint" />
            <mxPoint x="530" y="1608.5" as="targetPoint" />
          </mxGeometry>
        </mxCell>
      </root>
    </mxGraphModel>
  </diagram>
</mxfile>
